<svg height="512" viewBox="0 0 64 64" width="512" xmlns="http://www.w3.org/2000/svg"><g id="vacuum_cleaner" data-name="vacuum cleaner"><path d="m60.38 26a29.342 29.342 0 0 1 0 12h-11.38a2.006 2.006 0 0 1 -2-2v-8a2.006 2.006 0 0 1 2-2z" fill="#57a4ff"/><path d="m60.38 26h-4.11a25 25 0 0 0 -48.54 0h-4.11a29.009 29.009 0 0 1 56.76 0z" fill="#ff7956"/><path d="m56.27 38h4.11a28.978 28.978 0 0 1 -12.38 18.19 29.016 29.016 0 0 1 -32 0 29.035 29.035 0 0 1 -12.38-18.19h4.11a25 25 0 0 0 48.54 0z" fill="#ff7956"/><path d="m49 38h7.27a25 25 0 0 1 -48.54 0h7.27a2.006 2.006 0 0 0 2-2v-8a2.006 2.006 0 0 0 -2-2h-7.27a25 25 0 0 1 48.54 0h-7.27a2.006 2.006 0 0 0 -2 2v8a2.006 2.006 0 0 0 2 2z" fill="#ffeb99"/><rect fill="#ff7956" height="6" rx="2" width="24" x="20" y="16"/><g fill="#57a4ff"><circle cx="40" cy="47" r="2"/><circle cx="32" cy="47" r="2"/><circle cx="24" cy="47" r="2"/><path d="m17 28v8a2.006 2.006 0 0 1 -2 2h-11.38a29.342 29.342 0 0 1 0-12h11.38a2.006 2.006 0 0 1 2 2z"/></g><path d="m61.293 62.707 1.414-1.414-8.814-8.814a30.032 30.032 0 0 0 2.807-3.479h5.3v-2h-4.036a29.994 29.994 0 1 0 -55.964-15 29.809 29.809 0 0 0 4.036 15h-4.036v2h5.3a30.032 30.032 0 0 0 2.807 3.479l-8.814 8.814 1.414 1.414 8.814-8.814a30.032 30.032 0 0 0 3.479 2.807v5.3h2v-4.036a29.892 29.892 0 0 0 30 0v4.036h2v-5.3a30.032 30.032 0 0 0 3.479-2.807zm-57.293-30.707a28.033 28.033 0 0 1 .456-5h10.544a1 1 0 0 1 1 1v8a1 1 0 0 1 -1 1h-10.544a28.033 28.033 0 0 1 -.456-5zm11 7a3 3 0 0 0 3-3v-8a3 3 0 0 0 -3-3h-5.937a23.974 23.974 0 0 1 45.874 0h-5.937a3 3 0 0 0 -3 3v8a3 3 0 0 0 3 3h5.937a23.974 23.974 0 0 1 -45.874 0zm34-2a1 1 0 0 1 -1-1v-8a1 1 0 0 1 1-1h10.544a27.64 27.64 0 0 1 0 10zm-17-33a28.05 28.05 0 0 1 27.114 21h-2.1a25.971 25.971 0 0 0 -50.032 0h-2.1a28.05 28.05 0 0 1 27.118-21zm0 56a28.05 28.05 0 0 1 -27.114-21h2.1a25.971 25.971 0 0 0 50.036 0h2.1a28.05 28.05 0 0 1 -27.122 21z"/><path d="m22 23h20a3 3 0 0 0 3-3v-2a3 3 0 0 0 -3-3h-20a3 3 0 0 0 -3 3v2a3 3 0 0 0 3 3zm-1-5a1 1 0 0 1 1-1h20a1 1 0 0 1 1 1v2a1 1 0 0 1 -1 1h-20a1 1 0 0 1 -1-1z"/><path d="m32 44a3 3 0 1 0 3 3 3 3 0 0 0 -3-3zm0 4a1 1 0 1 1 1-1 1 1 0 0 1 -1 1z"/><path d="m40 44a3 3 0 1 0 3 3 3 3 0 0 0 -3-3zm0 4a1 1 0 1 1 1-1 1 1 0 0 1 -1 1z"/><path d="m24 44a3 3 0 1 0 3 3 3 3 0 0 0 -3-3zm0 4a1 1 0 1 1 1-1 1 1 0 0 1 -1 1z"/></g></svg>